<svg xmlns="http://www.w3.org/2000/svg" version="1.1" xmlns:xlink="http://www.w3.org/1999/xlink" xmlns:svgjs="http://svgjs.dev/svgjs" width="2000" height="1500" viewBox="0 0 2000 1500"><rect width="2000" height="1500" fill="#3d2200"></rect><g transform="matrix(0.75,0,0,0.75,249.09242030547523,212.43393932397714)"><svg viewBox="0 0 396 284" data-background-color="#3d2200" preserveAspectRatio="xMidYMid meet" height="1434" width="2000" xmlns="http://www.w3.org/2000/svg" xmlns:xlink="http://www.w3.org/1999/xlink"><g id="tight-bounds" transform="matrix(1,0,0,1,0.24030443946537616,-0.04857161135240062)"><svg viewBox="0 0 395.52 284.0964543812179" height="284.0964543812179" width="395.52"><g><svg viewBox="0 0 395.52 284.0964543812179" height="284.0964543812179" width="395.52"><g transform="matrix(1,0,0,1,0,187.11632213355975)"><svg viewBox="0 0 395.52 96.98013224765816" height="96.98013224765816" width="395.52"><g id="textblocktransform"><svg viewBox="0 0 395.52 96.98013224765816" height="96.98013224765816" width="395.52" id="textblock"><g><svg viewBox="0 0 395.52 96.98013224765816" height="96.98013224765816" width="395.52"><g transform="matrix(1,0,0,1,0,0)"><svg width="395.52" viewBox="3.708187951528615 -28.44090741464382 203.35433105331205 49.861781106553856" height="96.98013224765816" data-palette-color="#f8fddd"><path d="M29.981 9.706v0c0.035 0.163 0.02 0.357-0.047 0.584-0.066 0.233-0.165 0.466-0.298 0.699-0.135 0.227-0.308 0.422-0.518 0.583-0.217 0.163-0.453 0.272-0.707 0.327v0c-0.457 0.065-0.973-0.113-1.549-0.533-0.577-0.427-1.171-0.742-1.78-0.944v0c-0.813-0.226-1.726-0.362-2.739-0.408-1.013-0.046-2.023-0.018-3.031 0.085-1.014 0.104-1.988 0.24-2.92 0.408v0l-0.43 0.094c-0.762 0.165-1.452 0.366-2.069 0.602v0c-0.2 0.773-0.422 1.637-0.666 2.59-0.243 0.953-0.567 1.883-0.97 2.79-0.404 0.906-0.931 1.747-1.581 2.523-0.65 0.776-1.443 1.381-2.379 1.816v0c-0.428 0.195-0.831 0.334-1.209 0.416v0c-1.244 0.27-2.229-0.117-2.954-1.16v0l-0.053-0.245c-0.283-1.303-0.251-2.459 0.097-3.469v0c0.333-1.075 0.869-2.061 1.609-2.959 0.741-0.891 1.599-1.701 2.572-2.431 0.974-0.73 1.921-1.444 2.841-2.141v0c0.225-2.955 0.099-6.066-0.378-9.332v0c-0.148-0.998-0.33-1.992-0.545-2.982v0c-0.498-2.293-1.186-4.613-2.064-6.961v0c-0.303-0.801-0.665-1.664-1.084-2.589-0.419-0.925-0.844-1.843-1.273-2.753v0c-0.255-0.545-0.521-1.081-0.799-1.607-0.283-0.518-0.542-1.022-0.778-1.509-0.241-0.48-0.409-0.941-0.505-1.385v0c-0.098-0.45-0.087-0.871 0.032-1.265v0c0.076-0.248 0.201-0.443 0.375-0.583v0l0.186-0.04c0.222-0.048 0.421-0.057 0.598-0.028v0c0.145 0.071 0.315 0.085 0.51 0.043v0c0.091-0.02 0.198-0.06 0.322-0.121v0c1.097 2.129 2.177 4.371 3.241 6.726 1.057 2.356 1.974 4.787 2.749 7.292v0c0.482 1.594 0.9 3.205 1.254 4.834v0c0.206 0.951 0.394 1.893 0.562 2.825v0c0.443 2.639 0.603 5.293 0.48 7.96v0c1.319 0.075 2.652 0.069 3.997-0.019 1.351-0.095 2.724-0.226 4.12-0.393v0c0.628 0.13 1.269 0.315 1.922 0.555 0.653 0.24 1.378 0.424 2.176 0.551v0c0.348 0.061 0.722 0.106 1.124 0.135 0.408 0.027 0.778 0.08 1.109 0.158 0.337 0.077 0.643 0.212 0.917 0.405 0.272 0.186 0.45 0.472 0.533 0.856zM10.518 13.43v0c-1.179 0.256-2.12 0.87-2.823 1.841-0.71 0.973-1.001 2.128-0.875 3.464v0c1.189-0.524 2.028-1.262 2.517-2.214 0.494-0.96 0.888-1.99 1.181-3.091zM53.45-11.178v0c0.473 1.35 0.802 2.621 0.987 3.814v0c0.175 1.126 0.226 2.188 0.152 3.184v0c-0.164 2.11-0.742 3.968-1.734 5.573-0.985 1.604-2.324 2.976-4.015 4.116-1.686 1.133-3.563 2.059-5.63 2.778v0c-2.171 0.27-4.186 0.304-6.047 0.101-1.861-0.21-3.55-0.723-5.067-1.54v0c-0.645-0.331-1.198-0.765-1.659-1.3-0.462-0.542-0.888-1.11-1.277-1.704-0.39-0.6-0.778-1.225-1.162-1.874-0.385-0.655-0.805-1.292-1.258-1.909v0c0.006-1.654 0.014-3.291 0.025-4.912 0.012-1.614 0.169-3.14 0.472-4.577v0c0.604-1.018 1.317-2.05 2.14-3.096 0.828-1.053 1.767-2.019 2.818-2.898 1.052-0.872 2.212-1.589 3.481-2.15v0c0.863-0.397 1.778-0.671 2.746-0.822v0c0.415-0.065 0.855-0.099 1.32-0.104v0c0.524-0.014 1.147 0.021 1.868 0.104 0.722 0.09 1.449 0.21 2.181 0.359 0.738 0.148 1.445 0.335 2.121 0.561 0.676 0.225 1.233 0.469 1.673 0.731v0c0.368 0.24 0.705 0.498 1.011 0.774 0.307 0.283 0.609 0.577 0.906 0.882 0.296 0.298 0.618 0.568 0.966 0.811 0.348 0.243 0.764 0.424 1.248 0.544v0c0.295 0.42 0.57 0.866 0.826 1.339 0.256 0.473 0.558 0.878 0.908 1.215zM52.134-3.697v0c0.009-0.595-0.032-1.182-0.122-1.762v0c-0.07-0.448-0.159-0.913-0.268-1.395v0c-0.328-1.069-0.589-2.115-0.782-3.137v0c-0.531-0.248-1.012-0.588-1.444-1.021-0.431-0.426-0.847-0.87-1.249-1.333-0.404-0.47-0.811-0.92-1.222-1.349-0.417-0.428-0.894-0.782-1.43-1.062v0c-1.095-0.228-2.134-0.488-3.117-0.781-0.983-0.292-1.995-0.375-3.034-0.246v0l-0.287 0.044c-1.291 0.201-2.355 0.582-3.192 1.145v0c-0.925 0.603-1.791 1.28-2.598 2.033v0c-0.575 0.555-1.089 1.063-1.544 1.525-0.46 0.47-0.856 0.963-1.187 1.48-0.332 0.51-0.618 1.058-0.858 1.642-0.241 0.577-0.418 1.239-0.531 1.985v0c-0.099 1.27-0.064 2.452 0.106 3.546v0c0.125 0.804 0.324 1.565 0.599 2.285v0c0.659 1.679 1.652 3.076 2.979 4.192v0c0.734 0.25 1.504 0.518 2.311 0.804 0.8 0.287 1.636 0.518 2.507 0.693 0.865 0.183 1.745 0.268 2.641 0.257v0c0.463 0.029 0.935 0.006 1.416-0.068v0c0.422-0.066 0.851-0.166 1.289-0.302v0c1.076-0.329 2.141-0.809 3.197-1.438 1.057-0.623 2-1.347 2.83-2.171 0.83-0.824 1.519-1.707 2.067-2.649 0.542-0.941 0.849-1.913 0.923-2.917zM80.693-17.844v0c-0.526 0.34-0.968 0.526-1.326 0.557v0c-0.133 0.012-0.232-0.013-0.298-0.075v0c-0.37-0.102-0.645-0.339-0.825-0.711-0.18-0.379-0.342-0.817-0.485-1.313-0.143-0.496-0.404-0.875-0.782-1.137v0c-0.285-0.203-0.533-0.318-0.742-0.347-0.217-0.035-0.426-0.05-0.627-0.046-0.194 0.003-0.414 0.006-0.662 0.008-0.24 0.007-0.547-0.056-0.92-0.191v0c-0.749 0.393-1.538 0.749-2.366 1.069-0.822 0.319-1.608 0.665-2.359 1.038-0.757 0.374-1.45 0.795-2.078 1.264-0.629 0.463-1.113 1.02-1.451 1.672v0c0.291 1.808 0.647 3.561 1.069 5.257 0.428 1.696 0.812 3.372 1.15 5.03 0.345 1.656 0.622 3.342 0.831 5.057v0l0.063 0.727c0.13 1.494 0.133 3.033 0.01 4.617v0c-0.28 0.546-0.683 1-1.207 1.359-0.525 0.353-1.083 0.703-1.675 1.049v0c-1.174 0.042-2.085-0.204-2.734-0.736-0.655-0.532-1.165-1.2-1.53-2.005-0.364-0.805-0.649-1.657-0.854-2.556-0.212-0.898-0.463-1.71-0.754-2.434v0c0.157-1.191 0.214-2.424 0.171-3.698-0.05-1.274-0.054-2.508-0.011-3.703 0.043-1.202 0.226-2.325 0.55-3.37 0.318-1.038 0.92-1.924 1.807-2.657v0c0.098-0.336 0.131-0.684 0.1-1.042v0c-0.017-0.193-0.052-0.4-0.104-0.624v0c-0.177-0.574-0.415-1.152-0.713-1.735-0.298-0.576-0.6-1.129-0.907-1.657-0.308-0.535-0.517-1.059-0.628-1.572v0c-0.044-0.123-0.072-0.251-0.084-0.384v0c-0.031-0.359 0.008-0.673 0.119-0.944v0c0.159-0.409 0.57-0.756 1.234-1.041v0c0.378 0.195 0.688 0.445 0.929 0.753 0.234 0.308 0.458 0.649 0.671 1.026 0.213 0.376 0.411 0.761 0.592 1.153 0.181 0.392 0.4 0.758 0.658 1.097v0c1.048-0.419 2.109-0.946 3.185-1.582 1.069-0.635 2.369-1.196 3.899-1.684v0c0.416-0.137 0.809-0.321 1.176-0.554 0.375-0.227 0.723-0.387 1.042-0.482v0c0.323-0.061 0.63-0.105 0.922-0.13v0c0.684-0.059 1.354-0.051 2.01 0.026v0c0.963 0.144 1.786 0.45 2.469 0.92 0.676 0.463 1.162 1.09 1.459 1.881v0c0.125 0.284 0.202 0.588 0.229 0.913v0c0.051 0.584-0.024 1.23-0.223 1.937zM65.772 4.271v0c0.166-1.098 0.207-2.313 0.125-3.645v0l-0.069-0.787c-0.093-1.069-0.234-2.151-0.422-3.246v0c-0.255-1.39-0.553-2.749-0.897-4.077-0.35-1.328-0.702-2.532-1.056-3.612v0c-0.297 1.043-0.529 2.308-0.694 3.794-0.165 1.487-0.183 2.977-0.053 4.471v0c0.13 1.494 0.429 2.89 0.896 4.189 0.475 1.304 1.198 2.275 2.17 2.913zM106.349-18.478v0c-0.545 0.308-0.998 0.468-1.357 0.478v0c-0.133 0.004-0.231-0.027-0.293-0.092v0c-0.364-0.123-0.624-0.376-0.781-0.759-0.157-0.389-0.293-0.836-0.407-1.339-0.114-0.504-0.351-0.897-0.713-1.181v0c-0.273-0.219-0.513-0.349-0.721-0.39-0.215-0.047-0.422-0.075-0.622-0.083-0.194-0.008-0.414-0.019-0.661-0.032-0.24-0.007-0.543-0.088-0.907-0.245v0c-0.771 0.348-1.579 0.657-2.426 0.927-0.84 0.27-1.645 0.569-2.416 0.897-0.778 0.328-1.494 0.708-2.15 1.139-0.655 0.425-1.171 0.953-1.547 1.584v0c0.184 1.822 0.436 3.593 0.757 5.311 0.327 1.718 0.611 3.414 0.85 5.088 0.246 1.674 0.423 3.373 0.531 5.098v0l0.02 0.729c0.041 1.499-0.046 3.036-0.263 4.609v0c-0.312 0.529-0.741 0.957-1.285 1.286-0.545 0.322-1.123 0.638-1.735 0.948v0c-1.175-0.028-2.07-0.326-2.686-0.896-0.623-0.57-1.092-1.267-1.408-2.092-0.316-0.825-0.55-1.692-0.702-2.602-0.158-0.909-0.361-1.734-0.608-2.474v0c0.228-1.18 0.357-2.407 0.389-3.682 0.025-1.274 0.094-2.507 0.208-3.697 0.114-1.197 0.363-2.308 0.749-3.332 0.379-1.017 1.032-1.866 1.96-2.545v0c0.118-0.33 0.171-0.675 0.162-1.035v0c-0.005-0.193-0.028-0.403-0.067-0.628v0c-0.143-0.583-0.346-1.174-0.609-1.774-0.263-0.593-0.532-1.162-0.808-1.709-0.275-0.553-0.453-1.088-0.534-1.605v0c-0.037-0.126-0.057-0.255-0.061-0.389v0c-0.01-0.36 0.048-0.672 0.174-0.935v0c0.182-0.399 0.614-0.721 1.294-0.966v0c0.366 0.217 0.66 0.485 0.883 0.806 0.216 0.321 0.419 0.675 0.609 1.064 0.191 0.388 0.365 0.784 0.523 1.186 0.158 0.402 0.355 0.781 0.592 1.134v0c1.071-0.356 2.162-0.82 3.273-1.391 1.105-0.571 2.435-1.054 3.991-1.45v0c0.424-0.112 0.826-0.273 1.207-0.484 0.388-0.204 0.744-0.344 1.069-0.419v0c0.326-0.042 0.635-0.068 0.929-0.076v0c0.686-0.019 1.355 0.029 2.004 0.145v0c0.953 0.201 1.756 0.555 2.41 1.064 0.647 0.502 1.096 1.157 1.345 1.964v0c0.108 0.29 0.167 0.599 0.176 0.925v0c0.016 0.586-0.096 1.226-0.338 1.92zM90.146 2.716v0c0.23-1.087 0.344-2.297 0.341-3.63v0l-0.022-0.79c-0.03-1.073-0.106-2.161-0.23-3.265v0c-0.172-1.402-0.39-2.777-0.654-4.124-0.27-1.346-0.551-2.569-0.841-3.668v0c-0.359 1.024-0.664 2.272-0.917 3.747-0.253 1.474-0.359 2.961-0.318 4.46v0c0.041 1.499 0.257 2.911 0.647 4.234 0.397 1.33 1.062 2.342 1.994 3.036zM138.684 1.875v0c-0.109 0.382-0.237 0.734-0.384 1.055-0.147 0.321-0.369 0.542-0.668 0.663v0c-0.162 0.053-0.357 0.075-0.583 0.066v0c-0.167-0.007-0.329-0.027-0.488-0.061v0c-0.457-0.086-0.924-0.238-1.402-0.458-0.478-0.213-0.932-0.459-1.361-0.737-0.429-0.278-0.755-0.535-0.979-0.771v0c-0.435-0.445-0.781-0.95-1.038-1.514-0.25-0.564-0.48-1.137-0.69-1.72-0.203-0.576-0.384-1.113-0.544-1.614-0.16-0.494-0.363-0.892-0.611-1.196v0c-0.366 0.145-0.668 0.343-0.905 0.593-0.237 0.257-0.469 0.541-0.696 0.852-0.227 0.318-0.45 0.645-0.671 0.983-0.227 0.331-0.493 0.62-0.797 0.868v0c-0.714 0.658-1.562 1.236-2.543 1.736-0.981 0.493-2.034 0.863-3.159 1.111v0c-0.957 0.221-1.938 0.31-2.944 0.268v0c-0.167-0.007-0.329-0.027-0.488-0.06v0c-1.171-0.082-2.302-0.392-3.394-0.931v0c-1.107-0.826-2.098-1.862-2.974-3.106-0.876-1.244-1.563-2.61-2.063-4.098-0.492-1.488-0.737-3.066-0.735-4.735v0c-0.019-0.194-0.024-0.388-0.016-0.581v0c0.059-1.439 0.38-2.897 0.962-4.374v0c0.215-0.512 0.505-1.077 0.871-1.695 0.373-0.625 0.781-1.222 1.225-1.791 0.451-0.569 0.922-1.086 1.415-1.553 0.493-0.467 0.972-0.837 1.437-1.112v0c1.202-0.671 2.511-1.091 3.926-1.259v0c0.75-0.069 1.502-0.088 2.254-0.057v0c0.619 0.026 1.251 0.085 1.894 0.179v0c1.397 0.251 2.744 0.674 4.041 1.268 1.297 0.594 2.465 1.303 3.505 2.127v0c0.305-0.281 0.685-0.582 1.139-0.904 0.454-0.328 0.932-0.595 1.434-0.801v0c0.426-0.143 0.853-0.205 1.279-0.188v0l0.24 0.01c0.492 0.047 0.955 0.31 1.388 0.788v0c0.218 1.023 0.307 2.021 0.267 2.994v0l-0.031 0.739c-0.143 1.202-0.401 2.355-0.773 3.461-0.373 1.112-0.817 2.165-1.332 3.158-0.515 0.986-1 1.91-1.456 2.772v0c0.423 1.552 0.905 3.043 1.447 4.474 0.548 1.424 1.304 2.663 2.268 3.716v0l0.539 0.023c0.526 0.022 0.917 0.101 1.172 0.238v0c0.344 0.241 0.684 0.632 1.022 1.174zM133.023-18.537v0c-0.692 0.919-1.095 1.95-1.209 3.093v0l-0.032 0.779c-0.038 0.913 0.004 1.908 0.126 2.988v0c0.209-0.385 0.457-0.889 0.743-1.511 0.286-0.622 0.526-1.273 0.721-1.951v0c0.116-0.549 0.185-1.083 0.207-1.603v0l0.014-0.35c-0.009-0.588-0.199-1.069-0.57-1.445zM129.313-8.211v0c-0.078-1.338-0.15-2.742-0.216-4.213v0c-0.065-0.857-0.08-1.691-0.047-2.504v0c0.023-0.553 0.062-1.088 0.117-1.606v0c-0.393-0.67-0.938-1.28-1.636-1.83-0.698-0.556-1.463-1.015-2.295-1.376-0.833-0.355-1.719-0.618-2.66-0.79v0c-0.55-0.089-1.068-0.144-1.555-0.165v0c-0.393-0.016-0.787-0.016-1.181 0.002v0c-1.145 0.086-2.148 0.315-3.011 0.686-0.863 0.371-1.633 0.837-2.309 1.396v0c-0.387 0.638-0.806 1.338-1.258 2.099-0.459 0.768-0.863 1.586-1.212 2.452-0.343 0.867-0.6 1.77-0.773 2.711v0c-0.041 0.352-0.069 0.691-0.082 1.017v0c-0.026 0.619 0.012 1.242 0.113 1.867v0c0.112 0.525 0.291 1.113 0.537 1.763 0.254 0.644 0.554 1.284 0.902 1.919 0.347 0.635 0.73 1.221 1.148 1.759 0.418 0.538 0.834 0.962 1.249 1.273v0c0.634 0.487 1.388 0.815 2.261 0.984v0c0.549 0.116 1.133 0.187 1.753 0.213v0c0.326 0.013 0.653 0.01 0.981-0.01v0c1.086-0.282 2.047-0.699 2.884-1.252 0.844-0.552 1.62-1.171 2.329-1.855 0.716-0.691 1.394-1.43 2.033-2.218 0.633-0.788 1.276-1.562 1.928-2.322zM146.263-27.804l0.017-0.189c0.686-0.333 1.238-0.48 1.657-0.442v0l0.249 0.022c0.409 0.137 0.681 0.39 0.815 0.757v0c0.039 0.238 0.045 0.503 0.018 0.795v0l-0.039 0.438c-0.137 0.476-0.348 0.849-0.634 1.118v0c-0.282 0.235-0.603 0.337-0.961 0.304v0c-0.066-0.006-0.115-0.027-0.145-0.063v0c-0.448-0.074-0.922-0.458-1.422-1.153v0c-0.015-0.135-0.017-0.253-0.008-0.352v0c0.023-0.259 0.105-0.462 0.246-0.611v0c0.115-0.157 0.184-0.365 0.207-0.624zM147.077 6.55v0c-0.337 0.103-0.636 0.143-0.894 0.12v0c-0.193-0.017-0.351-0.082-0.475-0.194v0c-0.344-0.192-0.61-0.504-0.799-0.936-0.189-0.425-0.327-0.896-0.414-1.413-0.081-0.509-0.185-0.984-0.313-1.424v0c-0.425-1.444-0.752-3.077-0.982-4.898-0.223-1.821-0.331-3.698-0.323-5.633v0c0.018-1.605 0.101-3.217 0.247-4.837v0l0.089-0.976c0.206-1.909 0.531-3.68 0.973-5.314v0c0.454-0.354 0.926-0.509 1.418-0.464v0l0.189 0.017c0.545 0.116 0.91 0.444 1.096 0.983v0c0.075 0.208 0.102 0.424 0.082 0.65v0c-0.02 0.226-0.076 0.465-0.166 0.718v0c-0.21 0.543-0.376 1.117-0.497 1.722v0c-0.131 0.711-0.237 1.505-0.316 2.382v0l-0.08 0.876c-0.079 1.238-0.138 2.263-0.178 3.076v0c-0.062 0.684-0.104 1.443-0.126 2.278-0.028 0.828-0.018 1.672 0.032 2.534 0.056 0.855 0.138 1.696 0.243 2.522 0.106 0.826 0.259 1.576 0.459 2.25v0c0.143 0.569 0.354 1.12 0.633 1.654 0.28 0.534 0.505 1.036 0.677 1.507 0.171 0.477 0.236 0.942 0.195 1.394v0c-0.045 0.491-0.301 0.96-0.77 1.406zM178.006-9.456v0c-0.23 1.415-0.48 2.854-0.75 4.318-0.27 1.457-0.598 2.875-0.985 4.255-0.393 1.379-0.853 2.681-1.38 3.907-0.533 1.225-1.165 2.332-1.894 3.321v0c0.006 0.196-0.004 0.39-0.031 0.581v0c-0.054 0.39-0.167 0.721-0.339 0.993v0c-0.291 0.451-0.631 0.767-1.02 0.949v0c-0.322 0.184-0.661 0.252-1.018 0.202v0c-0.066-0.009-0.126-0.034-0.181-0.076v0c-0.451-0.096-0.826-0.38-1.124-0.852v0c0.009-0.261 0.027-0.488 0.054-0.679v0c0.027-0.192 0.067-0.384 0.121-0.579v0c0.111-0.314 0.259-0.607 0.445-0.877 0.186-0.27 0.377-0.513 0.575-0.728 0.192-0.222 0.389-0.451 0.59-0.686v0c0.75-1.377 1.434-2.985 2.053-4.823 0.613-1.847 1.066-3.702 1.358-5.566v0l0.027-0.198c0.251-1.809 0.278-3.532 0.082-5.168v0c-0.227-1.714-0.802-3.143-1.727-4.288v0c-0.142-0.188-0.368-0.354-0.678-0.498-0.311-0.137-0.639-0.247-0.984-0.329v0l-0.387-0.053c-0.264-0.037-0.511-0.054-0.74-0.053v0c-0.394-0.021-0.743-0.006-1.046 0.047v0c-1.351 0.277-2.674 0.861-3.968 1.751-1.288 0.891-2.454 1.995-3.499 3.311-1.038 1.323-1.882 2.794-2.531 4.413v0c-0.583 1.339-0.975 2.735-1.176 4.188v0c-0.045 0.324-0.073 0.649-0.086 0.978v0c-0.07 0.744-0.057 1.476 0.039 2.196 0.095 0.72 0.201 1.435 0.318 2.144 0.117 0.709 0.223 1.424 0.318 2.144 0.102 0.721 0.131 1.458 0.087 2.213v0c-0.306 0.314-0.65 0.563-1.032 0.745v0c-0.317 0.151-0.687 0.197-1.11 0.139v0c-0.192-0.027-0.384-0.07-0.577-0.13v0c-0.415-1.276-0.618-2.603-0.609-3.982 0.011-1.385-0.017-2.789-0.082-4.211v0c-0.059-1.226-0.135-2.522-0.227-3.888-0.087-1.358-0.198-2.696-0.332-4.014-0.127-1.317-0.274-2.606-0.442-3.868-0.176-1.256-0.356-2.408-0.54-3.457v0c-0.071-0.407-0.157-0.782-0.258-1.126-0.101-0.337-0.165-0.656-0.19-0.955v0c-0.01-0.17-0.006-0.317 0.011-0.443v0c0.018-0.132 0.055-0.275 0.11-0.429v0c0.103-0.255 0.338-0.522 0.707-0.8v0c0.27-0.057 0.518-0.069 0.742-0.038v0c0.291 0.04 0.539 0.139 0.746 0.295v0c0.321 0.307 0.545 0.702 0.674 1.184 0.136 0.477 0.211 0.999 0.227 1.566 0.023 0.562 0.055 1.058 0.096 1.487v0c0.147 1.077 0.31 2.079 0.492 3.006 0.187 0.935 0.268 1.73 0.244 2.387v0c0.82-1.205 1.692-2.343 2.614-3.413 0.923-1.077 1.922-2.042 2.996-2.896 1.074-0.854 2.251-1.572 3.53-2.155 1.285-0.576 2.718-0.986 4.3-1.231v0l0.238 0.033c1.36 0.189 2.442 0.588 3.246 1.198v0c0.833 0.641 1.49 1.415 1.97 2.323 0.487 0.902 0.86 1.9 1.119 2.992 0.26 1.086 0.531 2.16 0.814 3.223zM203.708 9.016v0c-0.41 0.847-1.008 1.556-1.795 2.126-0.788 0.57-1.551 1.026-2.291 1.368v0c-0.667 0.323-1.39 0.522-2.169 0.596-0.784 0.067-1.536 0.225-2.256 0.476v0c-1.219-0.195-2.379-0.381-3.48-0.558-1.093-0.182-2.187-0.354-3.284-0.517v0c-1.302-0.642-2.466-1.411-3.49-2.308-1.029-0.905-1.884-1.96-2.563-3.165v0c-0.311-0.563-0.62-1.312-0.927-2.249-0.302-0.929-0.523-1.932-0.665-3.011-0.141-1.079-0.176-2.176-0.104-3.292v0c0.016-0.399 0.067-0.807 0.155-1.225v0c0.133-0.633 0.342-1.219 0.625-1.758v0c0.119-0.275 0.379-0.571 0.78-0.889 0.401-0.318 0.785-0.721 1.153-1.209v0c1.177-1.449 2.395-2.674 3.655-3.676 1.26-1.002 2.747-1.708 4.462-2.117v0c1.092-0.268 2.362-0.365 3.811-0.292v0c0.954 0.064 1.894 0.194 2.821 0.389v0c0.509 0.107 1.014 0.23 1.516 0.37v0c1.408 0.432 2.711 1.023 3.909 1.772 1.192 0.748 2.062 1.629 2.611 2.644v0c0.361 0.682 0.613 1.427 0.757 2.234 0.142 0.813 0.162 1.628 0.058 2.444v0l-0.109 0.519c-0.128 0.607-0.33 1.181-0.607 1.722v0c-0.377 0.691-0.909 1.246-1.598 1.667v0c-0.885 0.55-1.921 0.989-3.108 1.318-1.188 0.336-2.434 0.558-3.736 0.665-1.303 0.107-2.641 0.085-4.013-0.067v0c-0.66-0.037-1.29-0.118-1.89-0.244v0c-0.705-0.148-1.366-0.338-1.985-0.571v0c-1.244-0.432-2.363-1.008-3.356-1.728-0.998-0.728-1.801-1.622-2.409-2.683v0c-0.107 0.345-0.194 0.678-0.261 0.998v0c-0.174 0.829-0.238 1.68-0.19 2.555v0c0.071 1.248 0.326 2.419 0.763 3.513 0.439 1.087 1.059 2.059 1.86 2.915 0.802 0.85 1.741 1.487 2.817 1.911v0c0.645 0.272 1.348 0.488 2.112 0.648v0c0.098 0.021 0.199 0.025 0.304 0.013v0c0.829 0.174 1.666 0.275 2.511 0.303 0.839 0.027 1.658-0.026 2.455-0.158 0.791-0.133 1.504-0.351 2.14-0.653v0c0.549-0.246 1.028-0.595 1.437-1.047 0.414-0.444 0.922-0.835 1.523-1.172v0c0.17 0.002 0.333 0.019 0.49 0.052v0c0.418 0.088 0.74 0.22 0.969 0.398v0c0.279 0.263 0.476 0.587 0.592 0.973zM204.215-2.915l0.062-0.294c0.069-0.619-0.024-1.163-0.28-1.632-0.249-0.468-0.417-1.045-0.505-1.731v0c-0.512-0.741-1.237-1.343-2.175-1.806-0.932-0.462-1.942-0.807-3.031-1.037v0c-1.116-0.235-2.26-0.383-3.432-0.445-1.166-0.061-2.238-0.062-3.218-0.003v0c-1.087 0.568-2.121 1.209-3.103 1.923-0.98 0.707-1.839 1.616-2.576 2.728v0c0.34 1.073 0.868 1.961 1.586 2.663 0.725 0.698 1.589 1.271 2.591 1.721v0c0.945 0.43 1.975 0.763 3.091 0.997v0c0.065 0.014 0.147 0.014 0.245 0v0c1.213 0.255 2.47 0.468 3.769 0.64v0c0.583-0.245 1.266-0.449 2.05-0.611 0.785-0.169 1.532-0.386 2.242-0.653 0.705-0.274 1.32-0.622 1.844-1.043v0c0.439-0.371 0.719-0.843 0.84-1.417z" opacity="1" transform="matrix(1,0,0,1,0,0)" fill="#f8fddd" class="wordmark-text-0" data-fill-palette-color="primary" id="text-0"></path></svg></g></svg></g></svg></g></svg></g><g transform="matrix(1,0,0,1,107.85442272149827,0)"><svg viewBox="0 0 179.81115455700345 156.9138539767109" height="156.9138539767109" width="179.81115455700345"><g><svg xmlns="http://www.w3.org/2000/svg" xmlns:xlink="http://www.w3.org/1999/xlink" version="1.1" baseProfile="basic" x="0" y="0" viewBox="5 10 80.1 69.9" xml:space="preserve" height="156.9138539767109" width="179.81115455700345" class="icon-icon-0" data-fill-palette-color="accent" id="icon-0"><g fill="#aecf75" data-fill-palette-color="accent"><path fill-rule="evenodd" clip-rule="evenodd" d="M77.2 10H12.8C8.2 10 5 13.8 5 17.9v54.1c0 4.1 3.2 7.9 7.8 7.9h64.5c4.6 0 7.8-3.8 7.8-7.9V17.9C85 13.8 81.8 10 77.2 10zM12.8 17h64.5c1 0 1.8 0.6 1.8 0.9V33H11V17.9C11 17.6 11.7 17 12.8 17zM77.2 73H12.8c-1 0-1.8-0.6-1.8-0.9V37h68v35.1C79 72.4 78.3 73 77.2 73z" fill="#aecf75" data-fill-palette-color="accent"></path><path fill-rule="evenodd" clip-rule="evenodd" d="M71.4 27.8c1.4 0 2.6-1.2 2.6-2.7 0-1.5-1.2-2.7-2.6-2.7-1.4 0-2.6 1.2-2.6 2.7C68.8 26.6 70 27.8 71.4 27.8z" fill="#aecf75" data-fill-palette-color="accent"></path><path fill-rule="evenodd" clip-rule="evenodd" d="M60.9 27.8c1.4 0 2.6-1.2 2.6-2.7 0-1.5-1.2-2.7-2.6-2.7-1.5 0-2.6 1.2-2.6 2.7C58.2 26.6 59.4 27.8 60.9 27.8z" fill="#aecf75" data-fill-palette-color="accent"></path><path fill-rule="evenodd" clip-rule="evenodd" d="M50.3 27.8c1.4 0 2.6-1.2 2.6-2.7 0-1.5-1.2-2.7-2.6-2.7-1.5 0-2.7 1.2-2.7 2.7C47.6 26.6 48.8 27.8 50.3 27.8z" fill="#aecf75" data-fill-palette-color="accent"></path></g></svg></g></svg></g><g></g></svg></g><defs></defs></svg><rect width="395.52" height="284.0964543812179" fill="none" stroke="none" visibility="hidden"></rect></g></svg></g></svg>