<svg xmlns="http://www.w3.org/2000/svg" version="1.1" xmlns:xlink="http://www.w3.org/1999/xlink" xmlns:svgjs="http://svgjs.dev/svgjs" width="2000" height="1247" viewBox="0 0 2000 1247"><g transform="matrix(1,0,0,1,-1.2121212121212466,248.52270473970464)"><svg viewBox="0 0 396 247" data-background-color="#632240" preserveAspectRatio="xMidYMid meet" height="1247" width="2000" xmlns="http://www.w3.org/2000/svg" xmlns:xlink="http://www.w3.org/1999/xlink"><g id="tight-bounds" transform="matrix(1,0,0,1,0.2400000000000091,-0.09999999999999432)"><svg viewBox="0 0 395.52 247.2" height="247.2" width="395.52"><g><svg></svg></g><g><svg viewBox="0 0 395.52 247.2" height="247.2" width="395.52"><g transform="matrix(1,0,0,1,75.54432,67.36705510112358)"><svg viewBox="0 0 244.43135999999998 112.46588979775281" height="112.46588979775281" width="244.43135999999998"><g><svg viewBox="0 0 244.43135999999998 112.46588979775281" height="112.46588979775281" width="244.43135999999998"><g><svg viewBox="0 0 244.43135999999998 112.46588979775281" height="112.46588979775281" width="244.43135999999998"><g><svg viewBox="0 0 244.43135999999998 112.46588979775281" height="112.46588979775281" width="244.43135999999998"><g id="textblocktransform"><svg viewBox="0 0 244.43135999999998 112.46588979775281" height="112.46588979775281" width="244.43135999999998" id="textblock"><g><svg viewBox="0 0 244.43135999999998 112.46588979775281" height="112.46588979775281" width="244.43135999999998"><g transform="matrix(1,0,0,1,0,0)"><svg width="244.43135999999998" viewBox="1.5 -39.4 88.99 40.949999999999996" height="112.46588979775281" data-palette-color="#fed8e5"><path d="M1.5 0L1.5-1.85Q3.1-1.85 3.8-2.35 4.5-2.85 4.5-4L4.5-4 4.5-33.5Q4.5-34.65 3.8-35.15 3.1-35.65 1.5-35.65L1.5-35.65 1.5-37.5 13.1-37.5 13.1-35.65Q11.5-35.65 10.8-35.15 10.1-34.65 10.1-33.5L10.1-33.5 10.1-2 13.9-2Q16.15-2 17.38-2.5 18.6-3 19.2-4.4 19.8-5.8 20.1-8.55L20.1-8.55 21.85-8.55 21.85 1.55 20 1.55Q19.8 0.7 19.03 0.35 18.25 0 16.55 0L16.55 0 1.5 0ZM34.45-38L34.45-38Q39-38 41.55-35.18 44.1-32.35 44.1-27.3L44.1-27.3 44.1-13.2Q44.1-5.9 39.4-3.55L39.4-3.55Q40.45-1.95 42.3-1.95L42.3-1.95 43.35-1.95 43.35 0 43.3 0Q37.95 0 35.8-2.55L35.8-2.55Q35.15-2.5 34.45-2.5L34.45-2.5Q29.75-2.5 27.17-5.28 24.6-8.05 24.6-13.2L24.6-13.2 24.6-27.3Q24.6-32.5 27.15-35.25 29.7-38 34.45-38ZM30.3-31.2L30.3-31.2 30.3-17.2Q37.75-16.7 38.55-8.55L38.55-8.55Q38.6-8.9 38.6-9.3L38.6-9.3 38.6-31.2Q38.6-33.3 37.42-34.65 36.25-36 34.45-36L34.45-36Q32.7-36 31.5-34.63 30.3-33.25 30.3-31.2ZM30.3-15.3L30.3-9.3Q30.3-7.15 31.45-5.83 32.6-4.5 34.45-4.5L34.45-4.5Q34.45-4.5 34.47-4.5 34.5-4.5 34.65-4.5L34.65-4.5Q33.9-6.55 33.9-9.75L33.9-9.75 33.9-10.45Q33.9-12.65 32.9-13.98 31.9-15.3 30.3-15.3L30.3-15.3ZM53.25 0L53.25-1.85Q55.9-1.85 56.2-3.4L56.2-3.4 56.2-15.4 49.35-33.5Q48.85-34.75 48.22-35.2 47.6-35.65 46.35-35.65L46.35-35.65 46.35-37.5 58.1-37.5 58.1-35.65Q56.4-35.65 55.57-35.08 54.75-34.5 55.1-33.55L55.1-33.55 60.35-18.75 65.25-33.45Q65.6-34.45 64.8-35.05 64-35.65 62.25-35.65L62.25-35.65 62.25-37.5 70.75-37.5 70.75-35.65Q69.4-35.65 68.75-35.2 68.1-34.75 67.65-33.45L67.65-33.45 61.8-16.2 61.8-4 61.85-4Q61.85-2.85 62.55-2.35 63.25-1.85 64.85-1.85L64.85-1.85 64.85 0 53.25 0ZM82.69-38L82.69-38Q84.59-38 85.39-38.3 86.19-38.6 86.59-39.4L86.59-39.4 88.29-39.4 90.49-30.35 88.79-29.9Q87.84-32.4 87.04-33.7 86.24-35 85.37-35.5 84.49-36 83.14-36L83.14-36Q81.14-36 79.77-34.48 78.39-32.95 78.39-30.7L78.39-30.7 78.39-6.8Q78.39-4.65 79.67-3.25 80.94-1.85 82.89-1.85L82.89-1.85Q85.24-1.85 86.69-3.93 88.14-6 88.14-9.45L88.14-9.45 88.14-10.25 90.29-10.25 90.29-10.2Q90.29-4.75 88.27-2.13 86.24 0.5 82.04 0.5L82.04 0.5Q77.69 0.5 75.24-2.35 72.79-5.2 72.79-10.2L72.79-10.2 72.79-27.3Q72.79-32.55 75.32-35.27 77.84-38 82.69-38Z" opacity="1" transform="matrix(1,0,0,1,0,0)" fill="#000000" class="wordmark-text-0" data-fill-palette-color="primary" id="text-0"></path></svg></g></svg></g></svg></g></svg></g><g></g></svg></g></svg></g></svg></g><g><path d="M107.851 40.817A122.216 122.216 0 0 1 287.669 40.817L277.526 40.817A112.073 112.073 0 0 0 117.994 40.817L107.851 40.817M107.851 206.383A122.216 122.216 0 0 0 287.669 206.383L277.526 206.383A112.073 112.073 0 0 1 117.994 206.383L107.851 206.383" fill="#000000" stroke="transparent" data-fill-palette-color="tertiary"></path></g></svg></g><defs></defs></svg><rect width="395.52" height="247.2" fill="none" stroke="none" visibility="hidden"></rect></g></svg></g></svg>