<svg xmlns="http://www.w3.org/2000/svg" xmlns:xlink="http://www.w3.org/1999/xlink" version="1.1" viewBox="152.71 99.25 493.61 495.91">
<defs>
<clipPath id="clip1">
  <path d="M 152.707031 234.875 L 646.320312 234.875 L 646.320312 461.628906 L 152.707031 461.628906 Z M 152.707031 234.875 "/>
</clipPath>
<clipPath id="clip2">
  <path d="M 206 99.25 L 593 99.25 L 593 498 L 206 498 Z M 206 99.25 "/>
</clipPath>
</defs>
<g id="surface1">
<g clip-path="url(#clip1)" clip-rule="nonzero">
<path style=" stroke:none;fill-rule:nonzero;fill:rgb(99.607843%,84.705882%,89.803922%);fill-opacity:1;" d="M 152.738281 453.042969 L 152.738281 442.800781 C 158.652344 442.800781 162.90625 441.875 165.492188 440.03125 C 168.082031 438.183594 169.375 435.140625 169.375 430.894531 L 169.375 267.542969 C 169.375 263.296875 168.082031 260.253906 165.492188 258.40625 C 162.90625 256.5625 158.652344 255.636719 152.738281 255.636719 L 152.738281 245.394531 L 217.074219 245.394531 L 217.074219 255.636719 C 211.15625 255.636719 206.90625 256.5625 204.316406 258.40625 C 201.726562 260.253906 200.433594 263.296875 200.433594 267.542969 L 200.433594 441.96875 L 221.507812 441.96875 C 229.828125 441.96875 236.261719 441.046875 240.808594 439.199219 C 245.320312 437.355469 248.6875 433.847656 250.90625 428.679688 C 253.121094 423.511719 254.785156 415.851562 255.894531 405.699219 L 265.601562 405.699219 L 265.601562 461.625 L 255.339844 461.625 C 254.601562 458.488281 252.808594 456.273438 249.960938 454.980469 C 247.078125 453.6875 242.492188 453.042969 236.207031 453.042969 Z M 335.484375 242.625 C 352.308594 242.625 365.433594 247.832031 374.863281 258.242188 C 384.289062 268.6875 389.003906 283.230469 389.003906 301.875 L 389.003906 379.949219 C 389.003906 406.898438 380.316406 424.710938 362.9375 433.386719 C 366.820312 439.292969 372.179688 442.246094 379.023438 442.246094 L 384.84375 442.246094 L 384.84375 453.042969 L 384.566406 453.042969 C 364.785156 453.042969 350.921875 448.335938 342.972656 438.921875 C 340.566406 439.109375 338.074219 439.199219 335.484375 439.199219 C 318.105469 439.199219 304.648438 434.070312 295.109375 423.804688 C 285.605469 413.582031 280.855469 398.960938 280.855469 379.949219 L 280.855469 301.875 C 280.855469 282.679688 285.566406 268.003906 294.996094 257.851562 C 304.425781 247.703125 317.921875 242.625 335.484375 242.625 Z M 312.46875 280.277344 L 312.46875 357.800781 C 340.011719 359.648438 355.265625 375.613281 358.222656 405.699219 C 358.410156 404.40625 358.5 403.023438 358.5 401.546875 L 358.5 280.277344 C 358.5 272.527344 356.320312 266.160156 351.957031 261.175781 C 347.628906 256.191406 342.140625 253.699219 335.484375 253.699219 C 329.011719 253.699219 323.558594 256.230469 319.121094 261.285156 C 314.6875 266.378906 312.46875 272.710938 312.46875 280.277344 Z M 312.46875 368.324219 L 312.46875 401.546875 C 312.46875 409.484375 314.59375 415.886719 318.84375 420.761719 C 323.097656 425.671875 328.644531 428.125 335.484375 428.125 C 335.484375 428.125 335.519531 428.125 335.59375 428.125 C 335.707031 428.125 336.039062 428.125 336.59375 428.125 C 333.820312 420.558594 332.433594 410.867188 332.433594 399.054688 L 332.433594 395.179688 C 332.433594 387.058594 330.585938 380.542969 326.886719 375.632812 C 323.191406 370.757812 318.382812 368.324219 312.46875 368.324219 Z M 439.753906 453.042969 L 439.753906 442.800781 C 449.550781 442.800781 455.003906 439.9375 456.113281 434.214844 L 456.113281 367.769531 L 418.121094 267.542969 C 416.273438 262.929688 414.183594 259.792969 411.855469 258.128906 C 409.5625 256.46875 406.105469 255.636719 401.484375 255.636719 L 401.484375 245.394531 L 466.652344 245.394531 L 466.652344 255.636719 C 460.367188 255.636719 455.6875 256.691406 452.621094 258.792969 C 449.589844 260.933594 448.71875 263.757812 450.011719 267.265625 L 479.132812 349.21875 L 506.308594 267.820312 C 507.601562 264.128906 506.769531 261.175781 503.8125 258.960938 C 500.855469 256.746094 496.140625 255.636719 489.667969 255.636719 L 489.667969 245.394531 L 536.8125 245.394531 L 536.8125 255.636719 C 531.820312 255.636719 528.121094 256.46875 525.71875 258.128906 C 523.316406 259.792969 521.28125 263.019531 519.617188 267.820312 L 487.171875 363.339844 L 487.171875 430.894531 L 487.449219 430.894531 C 487.449219 435.140625 488.746094 438.183594 491.332031 440.03125 C 493.921875 441.875 498.171875 442.800781 504.089844 442.800781 L 504.089844 453.042969 Z M 603.035156 242.625 C 610.058594 242.625 615.050781 242.070312 618.007812 240.964844 C 620.964844 239.855469 623.183594 237.828125 624.664062 234.875 L 634.09375 234.875 L 646.292969 284.984375 L 636.867188 287.476562 C 633.351562 278.25 630.117188 271.234375 627.160156 266.4375 C 624.203125 261.636719 621.113281 258.3125 617.898438 256.46875 C 614.644531 254.621094 610.519531 253.699219 605.527344 253.699219 C 598.132812 253.699219 591.902344 256.503906 586.839844 262.117188 C 581.734375 267.765625 579.183594 274.742188 579.183594 283.046875 L 579.183594 415.390625 C 579.183594 423.328125 581.550781 429.878906 586.285156 435.046875 C 590.980469 440.214844 596.933594 442.800781 604.144531 442.800781 C 612.832031 442.800781 619.855469 438.960938 625.21875 431.28125 C 630.578125 423.640625 633.261719 413.453125 633.261719 400.714844 L 633.261719 396.285156 L 645.183594 396.285156 L 645.183594 396.5625 C 645.183594 416.683594 641.449219 431.578125 633.980469 441.25 C 626.476562 450.957031 614.957031 455.8125 599.429688 455.8125 C 583.34375 455.8125 570.773438 450.550781 561.714844 440.03125 C 552.65625 429.507812 548.125 415.019531 548.125 396.5625 L 548.125 301.875 C 548.125 282.492188 552.804688 267.785156 562.15625 257.742188 C 571.476562 247.664062 585.101562 242.625 603.035156 242.625 Z M 603.035156 242.625 "/>
</g>
<path style=" stroke:none;fill-rule:nonzero;fill:rgb(99.607843%,84.705882%,89.803922%);fill-opacity:1;" d="M 217.949219 181.34375 C 264.679688 130.671875 330.523438 101.839844 399.515625 101.839844 C 468.507812 101.839844 534.347656 130.671875 581.082031 181.34375 L 560.597656 181.34375 C 518.070312 138.324219 460.054688 114.109375 399.515625 114.109375 C 338.976562 114.109375 280.960938 138.324219 238.433594 181.34375 L 217.949219 181.34375 M 217.949219 515.15625 C 264.679688 565.828125 330.523438 594.660156 399.515625 594.660156 C 468.507812 594.660156 534.347656 565.828125 581.082031 515.15625 L 560.597656 515.15625 C 518.070312 558.175781 460.054688 582.390625 399.515625 582.390625 C 338.976562 582.390625 280.960938 558.175781 238.433594 515.15625 L 217.949219 515.15625 "/>
<g clip-path="url(#clip2)" clip-rule="nonzero">
<path style="fill:none;stroke-width:1;stroke-linecap:butt;stroke-linejoin:miter;stroke:rgb(100%,100%,100%);stroke-opacity:1;stroke-miterlimit:4;" d="M 107.850647 40.817357 C 130.991035 15.684921 163.5961 1.384697 197.760234 1.384697 C 231.924369 1.384697 264.527499 15.684921 287.669822 40.817357 L 277.526196 40.817357 C 256.467147 19.480361 227.738479 7.470188 197.760234 7.470188 C 167.78199 7.470188 139.053322 19.480361 117.994273 40.817357 L 107.850647 40.817357 M 107.850647 206.382995 C 130.991035 231.515431 163.5961 245.815655 197.760234 245.815655 C 231.924369 245.815655 264.527499 231.515431 287.669822 206.382995 L 277.526196 206.382995 C 256.467147 227.719991 227.738479 239.730165 197.760234 239.730165 C 167.78199 239.730165 139.053322 227.719991 117.994273 206.382995 L 107.850647 206.382995 " transform="matrix(2.019433,0,0,2.016194,0.152042,99.048025)"/>
</g>
</g>
</svg>